<mxfile host="www.draw.io" modified="2020-01-27T12:55:42.602Z" agent="Mozilla/5.0 (Windows NT 10.0; Win64; x64) AppleWebKit/537.36 (KHTML, like Gecko) Chrome/76.0.3809.132 Safari/537.36" etag="zlNmlVtHN8EBKjGqnW3Q" version="12.5.8" type="github">
  <diagram id="uXmttSxeo8CzMjYbrP_F" name="Page-1">
    <mxGraphModel dx="1229" dy="705" grid="1" gridSize="10" guides="1" tooltips="1" connect="1" arrows="1" fold="1" page="1" pageScale="1" pageWidth="850" pageHeight="1100" math="0" shadow="0">
      <root>
        <mxCell id="0"/>
        <mxCell id="1" parent="0"/>
        <mxCell id="6_tzwVEDrdGomNf8C0je-2" value="EU West 1" style="points=[[0,0],[0.25,0],[0.5,0],[0.75,0],[1,0],[1,0.25],[1,0.5],[1,0.75],[1,1],[0.75,1],[0.5,1],[0.25,1],[0,1],[0,0.75],[0,0.5],[0,0.25]];outlineConnect=0;gradientColor=none;html=1;whiteSpace=wrap;fontSize=12;fontStyle=0;shape=mxgraph.aws4.group;grIcon=mxgraph.aws4.group_region;strokeColor=#147EBA;fillColor=none;verticalAlign=top;align=left;spacingLeft=30;fontColor=#147EBA;dashed=0;" parent="1" vertex="1">
          <mxGeometry x="300" y="40" width="510" height="430" as="geometry"/>
        </mxCell>
        <mxCell id="6_tzwVEDrdGomNf8C0je-34" value="" style="rounded=0;whiteSpace=wrap;html=1;direction=south;" parent="1" vertex="1">
          <mxGeometry x="10" y="30" width="260" height="550" as="geometry"/>
        </mxCell>
        <mxCell id="6_tzwVEDrdGomNf8C0je-1" value="VPC" style="points=[[0,0],[0.25,0],[0.5,0],[0.75,0],[1,0],[1,0.25],[1,0.5],[1,0.75],[1,1],[0.75,1],[0.5,1],[0.25,1],[0,1],[0,0.75],[0,0.5],[0,0.25]];outlineConnect=0;gradientColor=none;html=1;whiteSpace=wrap;fontSize=12;fontStyle=0;shape=mxgraph.aws4.group;grIcon=mxgraph.aws4.group_vpc;strokeColor=#248814;fillColor=none;verticalAlign=top;align=left;spacingLeft=30;fontColor=#AAB7B8;dashed=0;" parent="1" vertex="1">
          <mxGeometry x="317.5" y="182.13" width="475" height="223.27" as="geometry"/>
        </mxCell>
        <mxCell id="6_tzwVEDrdGomNf8C0je-4" value="" style="outlineConnect=0;fontColor=#232F3E;gradientColor=none;fillColor=#5A30B5;strokeColor=none;dashed=0;verticalLabelPosition=bottom;verticalAlign=top;align=center;html=1;fontSize=12;fontStyle=0;aspect=fixed;pointerEvents=1;shape=mxgraph.aws4.application_load_balancer;" parent="1" vertex="1">
          <mxGeometry x="343" y="300" width="58" height="58" as="geometry"/>
        </mxCell>
        <mxCell id="6_tzwVEDrdGomNf8C0je-5" value="" style="outlineConnect=0;fillColor=#3399FF;strokeColor=#6c8ebf;dashed=0;verticalLabelPosition=bottom;verticalAlign=top;align=center;html=1;fontSize=12;fontStyle=0;aspect=fixed;pointerEvents=1;shape=mxgraph.aws4.hosted_zone;" parent="1" vertex="1">
          <mxGeometry x="311" y="67" width="58" height="57.26" as="geometry"/>
        </mxCell>
        <mxCell id="6_tzwVEDrdGomNf8C0je-6" value="" style="edgeStyle=orthogonalEdgeStyle;rounded=0;orthogonalLoop=1;jettySize=auto;html=1;" parent="1" source="6_tzwVEDrdGomNf8C0je-4" target="6_tzwVEDrdGomNf8C0je-8" edge="1">
          <mxGeometry relative="1" as="geometry">
            <mxPoint x="410" y="212.63" as="sourcePoint"/>
          </mxGeometry>
        </mxCell>
        <mxCell id="6_tzwVEDrdGomNf8C0je-7" style="edgeStyle=orthogonalEdgeStyle;rounded=0;orthogonalLoop=1;jettySize=auto;html=1;entryX=0;entryY=0.504;entryDx=0;entryDy=0;entryPerimeter=0;startArrow=classic;startFill=1;" parent="1" source="6_tzwVEDrdGomNf8C0je-8" target="6_tzwVEDrdGomNf8C0je-10" edge="1">
          <mxGeometry relative="1" as="geometry"/>
        </mxCell>
        <mxCell id="6_tzwVEDrdGomNf8C0je-8" value="" style="outlineConnect=0;fontColor=#232F3E;gradientColor=none;fillColor=#D05C17;strokeColor=none;dashed=0;verticalLabelPosition=bottom;verticalAlign=top;align=center;html=1;fontSize=12;fontStyle=0;aspect=fixed;pointerEvents=1;shape=mxgraph.aws4.lambda_function;" parent="1" vertex="1">
          <mxGeometry x="460" y="299" width="59" height="59" as="geometry"/>
        </mxCell>
        <mxCell id="6_tzwVEDrdGomNf8C0je-9" value="" style="group" parent="1" vertex="1" connectable="0">
          <mxGeometry x="579" y="298" width="92" height="59" as="geometry"/>
        </mxCell>
        <mxCell id="6_tzwVEDrdGomNf8C0je-10" value="" style="outlineConnect=0;fontColor=#232F3E;gradientColor=none;fillColor=#5A30B5;strokeColor=none;dashed=0;verticalLabelPosition=bottom;verticalAlign=top;align=center;html=1;fontSize=12;fontStyle=0;aspect=fixed;pointerEvents=1;shape=mxgraph.aws4.endpoints;" parent="6_tzwVEDrdGomNf8C0je-9" vertex="1">
          <mxGeometry y="16.984848484848484" width="26.818181818181817" height="26.818181818181817" as="geometry"/>
        </mxCell>
        <mxCell id="6_tzwVEDrdGomNf8C0je-11" value="" style="outlineConnect=0;fontColor=#232F3E;gradientColor=none;fillColor=#5A30B5;strokeColor=none;dashed=0;verticalLabelPosition=bottom;verticalAlign=top;align=center;html=1;fontSize=12;fontStyle=0;aspect=fixed;pointerEvents=1;shape=mxgraph.aws4.endpoint;" parent="6_tzwVEDrdGomNf8C0je-9" vertex="1">
          <mxGeometry x="30.040816326530614" width="59" height="59" as="geometry"/>
        </mxCell>
        <mxCell id="6_tzwVEDrdGomNf8C0je-12" value="" style="outlineConnect=0;fontColor=#232F3E;gradientColor=none;fillColor=#277116;strokeColor=none;dashed=0;verticalLabelPosition=bottom;verticalAlign=top;align=center;html=1;fontSize=12;fontStyle=0;aspect=fixed;pointerEvents=1;shape=mxgraph.aws4.bucket_with_objects;" parent="1" vertex="1">
          <mxGeometry x="498.5" y="63.42999999999999" width="55" height="57.2" as="geometry"/>
        </mxCell>
        <mxCell id="6_tzwVEDrdGomNf8C0je-14" value="Route 53 &lt;br&gt;hosted zone" style="text;html=1;align=center;verticalAlign=middle;resizable=0;points=[];autosize=1;fontColor=#3399FF;" parent="1" vertex="1">
          <mxGeometry x="311" y="127.83" width="80" height="30" as="geometry"/>
        </mxCell>
        <mxCell id="6_tzwVEDrdGomNf8C0je-15" value="ALB" style="text;html=1;align=center;verticalAlign=middle;resizable=0;points=[];autosize=1;" parent="1" vertex="1">
          <mxGeometry x="343" y="242.63" width="40" height="20" as="geometry"/>
        </mxCell>
        <mxCell id="6_tzwVEDrdGomNf8C0je-16" value="Lambda &lt;br&gt;as proxy" style="text;html=1;align=center;verticalAlign=middle;resizable=0;points=[];autosize=1;" parent="1" vertex="1">
          <mxGeometry x="441" y="244.63" width="60" height="30" as="geometry"/>
        </mxCell>
        <mxCell id="6_tzwVEDrdGomNf8C0je-17" value="API gateway&lt;br&gt;with vpc endpoint&amp;nbsp;" style="text;html=1;align=center;verticalAlign=middle;resizable=0;points=[];autosize=1;" parent="1" vertex="1">
          <mxGeometry x="590" y="360" width="110" height="30" as="geometry"/>
        </mxCell>
        <mxCell id="6_tzwVEDrdGomNf8C0je-19" value="https" style="text;html=1;align=center;verticalAlign=middle;resizable=0;points=[];autosize=1;fontColor=#000000;" parent="1" vertex="1">
          <mxGeometry x="506" y="210.63" width="40" height="20" as="geometry"/>
        </mxCell>
        <mxCell id="6_tzwVEDrdGomNf8C0je-20" value="https" style="text;html=1;align=center;verticalAlign=middle;resizable=0;points=[];autosize=1;fontColor=#000000;" parent="1" vertex="1">
          <mxGeometry x="660" y="211.63" width="40" height="20" as="geometry"/>
        </mxCell>
        <mxCell id="6_tzwVEDrdGomNf8C0je-21" style="edgeStyle=orthogonalEdgeStyle;rounded=0;orthogonalLoop=1;jettySize=auto;html=1;strokeColor=#3399FF;fontColor=#000000;" parent="1" source="6_tzwVEDrdGomNf8C0je-22" target="6_tzwVEDrdGomNf8C0je-5" edge="1">
          <mxGeometry relative="1" as="geometry"/>
        </mxCell>
        <mxCell id="6_tzwVEDrdGomNf8C0je-22" value="" style="verticalLabelPosition=bottom;html=1;fillColor=#28A8E0;verticalAlign=top;points=[[0.145,0.145,0],[0.8555,0.145,0],[0.855,0.855,0],[0.145,0.855,0],[0.5,0,0], [1,0.5,0], [0.5,1,0],[0,0.5,0]];pointerEvents=1;align=center;shape=mxgraph.cisco_safe.capability.dns;fontColor=#000000;" parent="1" vertex="1">
          <mxGeometry x="97" y="70.63" width="50" height="50" as="geometry"/>
        </mxCell>
        <mxCell id="6_tzwVEDrdGomNf8C0je-23" value="target" style="text;html=1;align=center;verticalAlign=middle;resizable=0;points=[];autosize=1;fontColor=#000000;" parent="1" vertex="1">
          <mxGeometry x="390" y="211.63" width="50" height="20" as="geometry"/>
        </mxCell>
        <mxCell id="6_tzwVEDrdGomNf8C0je-24" value="dns resolution" style="text;html=1;align=center;verticalAlign=middle;resizable=0;points=[];autosize=1;fontColor=#3399FF;" parent="1" vertex="1">
          <mxGeometry x="170" y="70.63" width="90" height="20" as="geometry"/>
        </mxCell>
        <mxCell id="6_tzwVEDrdGomNf8C0je-26" style="edgeStyle=orthogonalEdgeStyle;rounded=0;orthogonalLoop=1;jettySize=auto;html=1;strokeColor=#3399FF;fontColor=#000000;entryX=0.5;entryY=1;entryDx=0;entryDy=0;entryPerimeter=0;" parent="1" source="6_tzwVEDrdGomNf8C0je-25" target="6_tzwVEDrdGomNf8C0je-22" edge="1">
          <mxGeometry relative="1" as="geometry">
            <mxPoint x="180" y="106" as="sourcePoint"/>
            <mxPoint x="321.0862145545798" y="106" as="targetPoint"/>
          </mxGeometry>
        </mxCell>
        <mxCell id="6_tzwVEDrdGomNf8C0je-27" value="dns resolution" style="text;html=1;align=center;verticalAlign=middle;resizable=0;points=[];autosize=1;fontColor=#3399FF;" parent="1" vertex="1">
          <mxGeometry x="30" y="182.13" width="90" height="20" as="geometry"/>
        </mxCell>
        <mxCell id="6_tzwVEDrdGomNf8C0je-28" value="" style="endArrow=classic;html=1;strokeColor=#000000;fontColor=#3399FF;entryX=0.032;entryY=0.283;entryDx=0;entryDy=0;entryPerimeter=0;startArrow=classic;startFill=1;" parent="1" source="6_tzwVEDrdGomNf8C0je-25" target="6_tzwVEDrdGomNf8C0je-1" edge="1">
          <mxGeometry width="50" height="50" relative="1" as="geometry">
            <mxPoint x="10" y="560" as="sourcePoint"/>
            <mxPoint x="60" y="510" as="targetPoint"/>
          </mxGeometry>
        </mxCell>
        <mxCell id="6_tzwVEDrdGomNf8C0je-29" value="https" style="text;html=1;align=center;verticalAlign=middle;resizable=0;points=[];autosize=1;fontColor=#000000;" parent="1" vertex="1">
          <mxGeometry x="205" y="211.63" width="40" height="20" as="geometry"/>
        </mxCell>
        <mxCell id="6_tzwVEDrdGomNf8C0je-30" value="Airbus LAN" style="text;html=1;align=center;verticalAlign=middle;resizable=0;points=[];autosize=1;fontColor=#000000;" parent="1" vertex="1">
          <mxGeometry x="8" y="30" width="80" height="20" as="geometry"/>
        </mxCell>
        <mxCell id="6_tzwVEDrdGomNf8C0je-32" value="" style="outlineConnect=0;fontColor=#232F3E;gradientColor=none;fillColor=#D05C17;strokeColor=none;dashed=0;verticalLabelPosition=bottom;verticalAlign=top;align=center;html=1;fontSize=12;fontStyle=0;aspect=fixed;pointerEvents=1;shape=mxgraph.aws4.lambda_function;" parent="1" vertex="1">
          <mxGeometry x="720" y="301" width="59" height="59" as="geometry"/>
        </mxCell>
        <mxCell id="FjIFYjuclCFXKVwC-oeQ-1" value="" style="group" vertex="1" connectable="0" parent="1">
          <mxGeometry x="53" y="211.63" width="138.78" height="98.54000000000002" as="geometry"/>
        </mxCell>
        <mxCell id="6_tzwVEDrdGomNf8C0je-25" value="" style="pointerEvents=1;shadow=0;dashed=0;html=1;strokeColor=none;fillColor=#434445;aspect=fixed;labelPosition=center;verticalLabelPosition=bottom;verticalAlign=top;align=center;outlineConnect=0;shape=mxgraph.vvd.web_browser;fontColor=#3399FF;" parent="FjIFYjuclCFXKVwC-oeQ-1" vertex="1">
          <mxGeometry width="138.78" height="98.54" as="geometry"/>
        </mxCell>
        <mxCell id="6_tzwVEDrdGomNf8C0je-31" value="user browser" style="text;html=1;align=center;verticalAlign=middle;resizable=0;points=[];autosize=1;fontColor=#000000;" parent="FjIFYjuclCFXKVwC-oeQ-1" vertex="1">
          <mxGeometry x="6" y="73.13" width="80" height="20" as="geometry"/>
        </mxCell>
      </root>
    </mxGraphModel>
  </diagram>
</mxfile>
